<svg viewBox="0 0 143 146" fill="none" xmlns="http://www.w3.org/2000/svg">
<path d="M30.6208 96.3737C25.4563 96.4378 20.1736 87.3772 18.0246 92.2186C17.124 94.2474 17.8514 95.7078 18.0246 97.9318C18.7091 106.719 20.6295 112.386 26.59 118.707C31.4386 123.85 35.4742 125.741 42.2093 127.537C49.0671 129.366 53.4188 129.054 60.3477 127.537C68.0104 125.859 72.7886 124.249 78.4862 118.707C86.3261 111.082 99.1628 90.2 88.5631 92.2186C85.1019 92.8777 83.9861 95.8605 80.5016 96.3737C75.5738 97.0993 73.3867 92.1519 68.4093 92.2186C63.6182 92.2827 61.6047 96.0951 56.8208 96.3737C51.1001 96.7068 48.4376 91.962 42.7131 92.2186C37.74 92.4414 35.5982 96.3118 30.6208 96.3737Z" fill="#079A82"/>
<path d="M87.0133 10.4575L92.821 14.5883M118.955 33.1767L113.148 29.0459M113.148 29.0459L84.2324 69.6994C84.2324 69.6994 97.0481 90.5309 85.9708 110.291C74.8935 130.052 47.0644 136.405 29.2442 122.418C12.1447 108.997 10.5521 83.1682 24.9906 66.9185C38.4317 51.7912 63.9057 55.2418 63.9057 55.2418L92.821 14.5883M113.148 29.0459L92.821 14.5883" stroke="#004440" stroke-width="6" stroke-linecap="round"/>
<path d="M126.484 36.5736C126.483 36.6398 126.482 36.705 126.482 36.7691C126.472 40.7192 127.227 45.4805 132.413 46.4341C134.835 46.8797 137.963 46.0503 139.713 44.1885C141.791 41.9771 141.402 39.1373 140.208 37.0273C138.745 34.4401 136.39 32.7919 133.544 31.2925C132.677 30.8354 131.69 30.4488 130.554 30.4898C126.936 30.6195 126.521 34.5852 126.484 36.5736Z" fill="#079A82"/>
<circle cx="66.083" cy="81.2944" r="3.5" fill="#079A82"/>
<circle cx="81.583" cy="48.7944" r="3" fill="#079A82"/>
<circle cx="40.083" cy="84.2944" r="1.5" fill="#079A82"/>
<circle cx="51.083" cy="71.2944" r="2.5" fill="#079A82"/>
<circle cx="97.083" cy="35.2944" r="2.5" fill="#079A82"/>
</svg>
