<svg viewBox="0 0 886 146" fill="none" xmlns="http://www.w3.org/2000/svg">
<path d="M198.1 52V62.98H178.84V115H167.86V62.98H148.6V52H198.1ZM203.134 70H214.114V115H203.134V70ZM208.714 64.195C207.094 64.195 205.729 63.67 204.619 62.62C203.509 61.54 202.954 60.19 202.954 58.57C202.954 56.98 203.509 55.645 204.619 54.565C205.729 53.485 207.079 52.945 208.669 52.945C210.259 52.945 211.594 53.485 212.674 54.565C213.784 55.645 214.339 56.98 214.339 58.57C214.339 60.19 213.799 61.54 212.719 62.62C211.639 63.67 210.304 64.195 208.714 64.195ZM224.58 115V70H235.56V74.005C237.09 72.385 238.92 71.11 241.05 70.18C243.18 69.22 245.475 68.74 247.935 68.74C251.055 68.74 253.92 69.475 256.53 70.945C259.17 72.415 261.27 74.38 262.83 76.84C264.42 74.38 266.52 72.415 269.13 70.945C271.74 69.475 274.605 68.74 277.725 68.74C281.025 68.74 284.01 69.55 286.68 71.17C289.38 72.76 291.525 74.905 293.115 77.605C294.735 80.275 295.545 83.26 295.545 86.56V115H284.565V89.485C284.565 87.745 284.13 86.155 283.26 84.715C282.42 83.245 281.28 82.075 279.84 81.205C278.43 80.305 276.84 79.855 275.07 79.855C273.3 79.855 271.695 80.29 270.255 81.16C268.845 82 267.705 83.14 266.835 84.58C265.965 86.02 265.53 87.655 265.53 89.485V115H254.55V89.485C254.55 87.655 254.13 86.02 253.29 84.58C252.45 83.14 251.31 82 249.87 81.16C248.43 80.29 246.825 79.855 245.055 79.855C243.315 79.855 241.725 80.305 240.285 81.205C238.845 82.075 237.69 83.245 236.82 84.715C235.98 86.155 235.56 87.745 235.56 89.485V115H224.58ZM301.224 75.49L304.014 52H314.994L308.559 75.49H301.224ZM336.38 115.81C334.04 115.66 331.775 115.195 329.585 114.415C327.425 113.605 325.505 112.51 323.825 111.13C322.145 109.75 320.855 108.1 319.955 106.18L329.225 102.22C329.585 102.82 330.17 103.465 330.98 104.155C331.79 104.815 332.75 105.37 333.86 105.82C335 106.27 336.245 106.495 337.595 106.495C338.735 106.495 339.815 106.345 340.835 106.045C341.885 105.715 342.725 105.22 343.355 104.56C344.015 103.9 344.345 103.045 344.345 101.995C344.345 100.885 343.955 100.03 343.175 99.43C342.425 98.8 341.465 98.335 340.295 98.035C339.155 97.705 338.045 97.405 336.965 97.135C334.115 96.565 331.46 95.68 329 94.48C326.57 93.28 324.605 91.735 323.105 89.845C321.635 87.925 320.9 85.615 320.9 82.915C320.9 79.945 321.68 77.38 323.24 75.22C324.83 73.06 326.885 71.395 329.405 70.225C331.955 69.055 334.7 68.47 337.64 68.47C341.21 68.47 344.48 69.22 347.45 70.72C350.45 72.19 352.82 74.275 354.56 76.975L345.875 82.105C345.455 81.385 344.87 80.725 344.12 80.125C343.37 79.495 342.515 78.985 341.555 78.595C340.595 78.175 339.59 77.935 338.54 77.875C337.19 77.815 335.96 77.935 334.85 78.235C333.74 78.535 332.84 79.045 332.15 79.765C331.49 80.485 331.16 81.445 331.16 82.645C331.16 83.785 331.61 84.64 332.51 85.21C333.41 85.75 334.49 86.17 335.75 86.47C337.04 86.77 338.27 87.1 339.44 87.46C342.08 88.33 344.555 89.395 346.865 90.655C349.205 91.915 351.08 93.46 352.49 95.29C353.9 97.12 354.575 99.31 354.515 101.86C354.515 104.77 353.645 107.32 351.905 109.51C350.165 111.67 347.915 113.32 345.155 114.46C342.425 115.6 339.5 116.05 336.38 115.81ZM383.838 115V52H423.348V62.98H394.818V75.76H417.453V86.74H394.818V104.02H423.348V115H383.838ZM428.883 115L445.353 92.41L429.018 69.955H442.563L452.103 83.05L461.688 69.955H475.233L458.898 92.41L475.368 115H461.823L452.103 101.68L442.428 115H428.883ZM493.343 137.5H482.363V70H493.343V75.715C494.813 73.675 496.613 72.025 498.743 70.765C500.903 69.475 503.423 68.83 506.303 68.83C509.603 68.83 512.678 69.445 515.528 70.675C518.378 71.905 520.883 73.615 523.043 75.805C525.233 77.965 526.928 80.47 528.128 83.32C529.358 86.17 529.973 89.23 529.973 92.5C529.973 95.77 529.358 98.845 528.128 101.725C526.928 104.605 525.233 107.14 523.043 109.33C520.883 111.49 518.378 113.185 515.528 114.415C512.678 115.645 509.603 116.26 506.303 116.26C503.423 116.26 500.903 115.63 498.743 114.37C496.613 113.08 494.813 111.415 493.343 109.375V137.5ZM506.168 79.405C503.888 79.405 501.848 80.005 500.048 81.205C498.248 82.375 496.838 83.95 495.818 85.93C494.798 87.91 494.288 90.1 494.288 92.5C494.288 94.9 494.798 97.105 495.818 99.115C496.838 101.095 498.248 102.685 500.048 103.885C501.848 105.055 503.888 105.64 506.168 105.64C508.478 105.64 510.593 105.055 512.513 103.885C514.433 102.715 515.963 101.14 517.103 99.16C518.243 97.15 518.813 94.93 518.813 92.5C518.813 90.1 518.243 87.91 517.103 85.93C515.963 83.95 514.433 82.375 512.513 81.205C510.623 80.005 508.508 79.405 506.168 79.405ZM557.007 116.17C552.867 116.17 549.087 115.105 545.667 112.975C542.277 110.845 539.562 107.98 537.522 104.38C535.512 100.78 534.507 96.805 534.507 92.455C534.507 89.185 535.092 86.125 536.262 83.275C537.432 80.395 539.037 77.875 541.077 75.715C543.147 73.525 545.547 71.815 548.277 70.585C551.007 69.355 553.917 68.74 557.007 68.74C560.517 68.74 563.727 69.49 566.637 70.99C569.577 72.46 572.067 74.485 574.107 77.065C576.147 79.645 577.632 82.585 578.562 85.885C579.492 89.185 579.702 92.635 579.192 96.235H546.297C546.717 97.915 547.407 99.43 548.367 100.78C549.327 102.1 550.542 103.165 552.012 103.975C553.482 104.755 555.147 105.16 557.007 105.19C558.927 105.22 560.667 104.77 562.227 103.84C563.817 102.88 565.137 101.59 566.187 99.97L577.392 102.58C575.562 106.57 572.832 109.84 569.202 112.39C565.572 114.91 561.507 116.17 557.007 116.17ZM545.937 88H568.077C567.747 86.2 567.042 84.58 565.962 83.14C564.912 81.67 563.607 80.5 562.047 79.63C560.487 78.76 558.807 78.325 557.007 78.325C555.207 78.325 553.542 78.76 552.012 79.63C550.482 80.47 549.177 81.625 548.097 83.095C547.047 84.535 546.327 86.17 545.937 88ZM586.558 115L586.513 70H597.493L597.538 74.005C599.068 72.385 600.898 71.11 603.028 70.18C605.158 69.22 607.453 68.74 609.913 68.74C611.563 68.74 613.213 68.98 614.863 69.46L610.543 80.53C609.403 80.08 608.263 79.855 607.123 79.855C605.353 79.855 603.733 80.29 602.263 81.16C600.823 82 599.668 83.155 598.798 84.625C597.958 86.065 597.538 87.67 597.538 89.44V115H586.558ZM619.736 70H630.716V115H619.736V70ZM625.316 64.195C623.696 64.195 622.331 63.67 621.221 62.62C620.111 61.54 619.556 60.19 619.556 58.57C619.556 56.98 620.111 55.645 621.221 54.565C622.331 53.485 623.681 52.945 625.271 52.945C626.861 52.945 628.196 53.485 629.276 54.565C630.386 55.645 630.941 56.98 630.941 58.57C630.941 60.19 630.401 61.54 629.321 62.62C628.241 63.67 626.906 64.195 625.316 64.195ZM641.181 115V70H652.161V74.005C653.691 72.385 655.521 71.11 657.651 70.18C659.781 69.22 662.076 68.74 664.536 68.74C667.656 68.74 670.521 69.475 673.131 70.945C675.771 72.415 677.871 74.38 679.431 76.84C681.021 74.38 683.121 72.415 685.731 70.945C688.341 69.475 691.206 68.74 694.326 68.74C697.626 68.74 700.611 69.55 703.281 71.17C705.981 72.76 708.126 74.905 709.716 77.605C711.336 80.275 712.146 83.26 712.146 86.56V115H701.166V89.485C701.166 87.745 700.731 86.155 699.861 84.715C699.021 83.245 697.881 82.075 696.441 81.205C695.031 80.305 693.441 79.855 691.671 79.855C689.901 79.855 688.296 80.29 686.856 81.16C685.446 82 684.306 83.14 683.436 84.58C682.566 86.02 682.131 87.655 682.131 89.485V115H671.151V89.485C671.151 87.655 670.731 86.02 669.891 84.58C669.051 83.14 667.911 82 666.471 81.16C665.031 80.29 663.426 79.855 661.656 79.855C659.916 79.855 658.326 80.305 656.886 81.205C655.446 82.075 654.291 83.245 653.421 84.715C652.581 86.155 652.161 87.745 652.161 89.485V115H641.181ZM740.083 116.17C735.943 116.17 732.163 115.105 728.743 112.975C725.353 110.845 722.638 107.98 720.598 104.38C718.588 100.78 717.583 96.805 717.583 92.455C717.583 89.185 718.168 86.125 719.338 83.275C720.508 80.395 722.113 77.875 724.153 75.715C726.223 73.525 728.623 71.815 731.353 70.585C734.083 69.355 736.993 68.74 740.083 68.74C743.593 68.74 746.803 69.49 749.713 70.99C752.653 72.46 755.143 74.485 757.183 77.065C759.223 79.645 760.708 82.585 761.638 85.885C762.568 89.185 762.778 92.635 762.268 96.235H729.373C729.793 97.915 730.483 99.43 731.443 100.78C732.403 102.1 733.618 103.165 735.088 103.975C736.558 104.755 738.223 105.16 740.083 105.19C742.003 105.22 743.743 104.77 745.303 103.84C746.893 102.88 748.213 101.59 749.263 99.97L760.468 102.58C758.638 106.57 755.908 109.84 752.278 112.39C748.648 114.91 744.583 116.17 740.083 116.17ZM729.013 88H751.153C750.823 86.2 750.118 84.58 749.038 83.14C747.988 81.67 746.683 80.5 745.123 79.63C743.563 78.76 741.883 78.325 740.083 78.325C738.283 78.325 736.618 78.76 735.088 79.63C733.558 80.47 732.253 81.625 731.173 83.095C730.123 84.535 729.403 86.17 729.013 88ZM810.809 86.56V115H799.829V89.44C799.829 87.67 799.394 86.065 798.524 84.625C797.654 83.155 796.484 82 795.014 81.16C793.574 80.29 791.969 79.855 790.199 79.855C788.429 79.855 786.809 80.29 785.339 81.16C783.899 82 782.744 83.155 781.874 84.625C781.034 86.065 780.614 87.67 780.614 89.44V115H769.634L769.589 70H780.569L780.614 74.005C782.144 72.385 783.974 71.11 786.104 70.18C788.234 69.22 790.529 68.74 792.989 68.74C796.259 68.74 799.244 69.55 801.944 71.17C804.644 72.76 806.789 74.905 808.379 77.605C809.999 80.275 810.809 83.26 810.809 86.56ZM843.895 80.98H835.165V115H824.185V80.98H817.525V70H824.185V55.87H835.165V70H843.895V80.98ZM864.603 115.81C862.263 115.66 859.998 115.195 857.808 114.415C855.648 113.605 853.728 112.51 852.048 111.13C850.368 109.75 849.078 108.1 848.178 106.18L857.448 102.22C857.808 102.82 858.393 103.465 859.203 104.155C860.013 104.815 860.973 105.37 862.083 105.82C863.223 106.27 864.468 106.495 865.818 106.495C866.958 106.495 868.038 106.345 869.058 106.045C870.108 105.715 870.948 105.22 871.578 104.56C872.238 103.9 872.568 103.045 872.568 101.995C872.568 100.885 872.178 100.03 871.398 99.43C870.648 98.8 869.688 98.335 868.518 98.035C867.378 97.705 866.268 97.405 865.188 97.135C862.338 96.565 859.683 95.68 857.223 94.48C854.793 93.28 852.828 91.735 851.328 89.845C849.858 87.925 849.123 85.615 849.123 82.915C849.123 79.945 849.903 77.38 851.463 75.22C853.053 73.06 855.108 71.395 857.628 70.225C860.178 69.055 862.923 68.47 865.863 68.47C869.433 68.47 872.703 69.22 875.673 70.72C878.673 72.19 881.043 74.275 882.783 76.975L874.098 82.105C873.678 81.385 873.093 80.725 872.343 80.125C871.593 79.495 870.738 78.985 869.778 78.595C868.818 78.175 867.813 77.935 866.763 77.875C865.413 77.815 864.183 77.935 863.073 78.235C861.963 78.535 861.063 79.045 860.373 79.765C859.713 80.485 859.383 81.445 859.383 82.645C859.383 83.785 859.833 84.64 860.733 85.21C861.633 85.75 862.713 86.17 863.973 86.47C865.263 86.77 866.493 87.1 867.663 87.46C870.303 88.33 872.778 89.395 875.088 90.655C877.428 91.915 879.303 93.46 880.713 95.29C882.123 97.12 882.798 99.31 882.738 101.86C882.738 104.77 881.868 107.32 880.128 109.51C878.388 111.67 876.138 113.32 873.378 114.46C870.648 115.6 867.723 116.05 864.603 115.81Z" fill="#333333"/>
<path d="M31.0378 96.5792C25.8733 96.6434 20.5906 87.5827 18.4416 92.4241C17.541 94.453 18.2684 95.9134 18.4416 98.1374C19.126 106.925 21.0465 112.591 27.007 118.913C31.8556 124.055 35.8912 125.947 42.6262 127.743C49.4841 129.571 53.8358 129.26 60.7647 127.743C68.4273 126.065 73.2056 124.455 78.9032 118.913C86.7431 111.287 99.5798 90.4056 88.9801 92.4241C85.5189 93.0833 84.4031 96.0661 80.9186 96.5792C75.9908 97.3049 73.8036 92.3575 68.8263 92.4241C64.0352 92.4883 62.0217 96.3006 57.2378 96.5792C51.5171 96.9124 48.8546 92.1676 43.1301 92.4241C38.157 92.647 36.0152 96.5174 31.0378 96.5792Z" fill="#079A82"/>
<path d="M87.4303 10.6631L93.238 14.7939M119.372 33.3823L113.565 29.2515M113.565 29.2515L84.6494 69.905C84.6494 69.905 97.4651 90.7364 86.3878 110.497C75.3105 130.258 47.4814 136.61 29.6612 122.624C12.5617 109.203 10.9691 83.3737 25.4076 67.1241C38.8487 51.9968 64.3227 55.4474 64.3227 55.4474L93.238 14.7939M113.565 29.2515L93.238 14.7939" stroke="#004440" stroke-width="6" stroke-linecap="round"/>
<path d="M126.901 36.7791C126.9 36.8454 126.899 36.9105 126.899 36.9747C126.889 40.9247 127.644 45.686 132.83 46.6397C135.252 47.0852 138.38 46.2559 140.13 44.3941C142.208 42.1826 141.819 39.3429 140.625 37.2329C139.162 34.6457 136.807 32.9974 133.961 31.498C133.094 31.041 132.107 30.6544 130.971 30.6953C127.353 30.825 126.938 34.7907 126.901 36.7791Z" fill="#079A82"/>
<circle cx="66.5" cy="81.5" r="3.5" fill="#079A82"/>
<circle cx="82" cy="49" r="3" fill="#079A82"/>
<circle cx="40.5" cy="84.5" r="1.5" fill="#079A82"/>
<circle cx="51.5" cy="71.5" r="2.5" fill="#079A82"/>
<circle cx="97.5" cy="35.5" r="2.5" fill="#079A82"/>
</svg>
