<svg viewBox="0 0 143 146" fill="none" xmlns="http://www.w3.org/2000/svg">
<path d="M30.6218 96.3737C25.4573 96.4378 20.1746 87.3772 18.0256 92.2186C17.125 94.2474 17.8524 95.7078 18.0256 97.9318C18.71 106.719 20.6305 112.386 26.591 118.707C31.4396 123.85 35.4752 125.741 42.2102 127.537C49.068 129.366 53.4198 129.054 60.3487 127.537C68.0113 125.859 72.7896 124.249 78.4872 118.707C86.3271 111.082 99.1638 90.2 88.5641 92.2186C85.1029 92.8777 83.987 95.8605 80.5026 96.3737C75.5748 97.0993 73.3876 92.1519 68.4103 92.2186C63.6191 92.2827 61.6057 96.0951 56.8218 96.3737C51.101 96.7068 48.4385 91.962 42.7141 92.2186C37.741 92.4414 35.5992 96.3118 30.6218 96.3737Z" fill="#17B897"/>
<path d="M87.0133 10.4575L92.821 14.5883M118.955 33.1767L113.148 29.0459M113.148 29.0459L84.2324 69.6994C84.2324 69.6994 97.0481 90.5309 85.9708 110.291C74.8935 130.052 47.0644 136.405 29.2442 122.418C12.1447 108.997 10.5521 83.1682 24.9906 66.9185C38.4317 51.7912 63.9057 55.2418 63.9057 55.2418L92.821 14.5883M113.148 29.0459L92.821 14.5883" stroke="#F0FCF9" stroke-width="6" stroke-linecap="round"/>
<path d="M126.485 36.5736C126.484 36.6398 126.483 36.705 126.483 36.7691C126.473 40.7192 127.228 45.4805 132.414 46.4341C134.836 46.8797 137.964 46.0503 139.714 44.1885C141.792 41.9771 141.403 39.1373 140.209 37.0273C138.746 34.4401 136.391 32.7919 133.545 31.2925C132.678 30.8354 131.691 30.4488 130.555 30.4898C126.937 30.6195 126.522 34.5852 126.485 36.5736Z" fill="#17B897"/>
<circle cx="66.084" cy="81.2944" r="3.5" fill="#17B897"/>
<circle cx="81.584" cy="48.7944" r="3" fill="#17B897"/>
<circle cx="40.084" cy="84.2944" r="1.5" fill="#17B897"/>
<circle cx="51.084" cy="71.2944" r="2.5" fill="#17B897"/>
<circle cx="97.084" cy="35.2944" r="2.5" fill="#17B897"/>
</svg>
