<svg viewBox="0 0 886 146" fill="none" xmlns="http://www.w3.org/2000/svg">
<path d="M197.892 52.1494V63.1294H178.632V115.149H167.652V63.1294H148.392V52.1494H197.892ZM202.926 70.1494H213.906V115.149H202.926V70.1494ZM208.506 64.3444C206.886 64.3444 205.521 63.8194 204.411 62.7694C203.301 61.6894 202.746 60.3394 202.746 58.7194C202.746 57.1294 203.301 55.7944 204.411 54.7144C205.521 53.6344 206.871 53.0944 208.461 53.0944C210.051 53.0944 211.386 53.6344 212.466 54.7144C213.576 55.7944 214.131 57.1294 214.131 58.7194C214.131 60.3394 213.591 61.6894 212.511 62.7694C211.431 63.8194 210.096 64.3444 208.506 64.3444ZM224.372 115.149V70.1494H235.352V74.1544C236.882 72.5344 238.712 71.2594 240.842 70.3294C242.972 69.3694 245.267 68.8894 247.727 68.8894C250.847 68.8894 253.712 69.6244 256.322 71.0944C258.962 72.5644 261.062 74.5294 262.622 76.9894C264.212 74.5294 266.312 72.5644 268.922 71.0944C271.532 69.6244 274.397 68.8894 277.517 68.8894C280.817 68.8894 283.802 69.6994 286.472 71.3194C289.172 72.9094 291.317 75.0544 292.907 77.7544C294.527 80.4244 295.337 83.4094 295.337 86.7094V115.149H284.357V89.6344C284.357 87.8944 283.922 86.3044 283.052 84.8644C282.212 83.3944 281.072 82.2244 279.632 81.3544C278.222 80.4544 276.632 80.0044 274.862 80.0044C273.092 80.0044 271.487 80.4394 270.047 81.3094C268.637 82.1494 267.497 83.2894 266.627 84.7294C265.757 86.1694 265.322 87.8044 265.322 89.6344V115.149H254.342V89.6344C254.342 87.8044 253.922 86.1694 253.082 84.7294C252.242 83.2894 251.102 82.1494 249.662 81.3094C248.222 80.4394 246.617 80.0044 244.847 80.0044C243.107 80.0044 241.517 80.4544 240.077 81.3544C238.637 82.2244 237.482 83.3944 236.612 84.8644C235.772 86.3044 235.352 87.8944 235.352 89.6344V115.149H224.372ZM301.016 75.6394L303.806 52.1494H314.786L308.351 75.6394H301.016ZM336.172 115.959C333.832 115.809 331.567 115.344 329.377 114.564C327.217 113.754 325.297 112.659 323.617 111.279C321.937 109.899 320.647 108.249 319.747 106.329L329.017 102.369C329.377 102.969 329.962 103.614 330.772 104.304C331.582 104.964 332.542 105.519 333.652 105.969C334.792 106.419 336.037 106.644 337.387 106.644C338.527 106.644 339.607 106.494 340.627 106.194C341.677 105.864 342.517 105.369 343.147 104.709C343.807 104.049 344.137 103.194 344.137 102.144C344.137 101.034 343.747 100.179 342.967 99.5794C342.217 98.9494 341.257 98.4844 340.087 98.1844C338.947 97.8544 337.837 97.5544 336.757 97.2844C333.907 96.7144 331.252 95.8294 328.792 94.6294C326.362 93.4294 324.397 91.8844 322.897 89.9944C321.427 88.0744 320.692 85.7644 320.692 83.0644C320.692 80.0944 321.472 77.5294 323.032 75.3694C324.622 73.2094 326.677 71.5444 329.197 70.3744C331.747 69.2044 334.492 68.6194 337.432 68.6194C341.002 68.6194 344.272 69.3694 347.242 70.8694C350.242 72.3394 352.612 74.4244 354.352 77.1244L345.667 82.2544C345.247 81.5344 344.662 80.8744 343.912 80.2744C343.162 79.6444 342.307 79.1344 341.347 78.7444C340.387 78.3244 339.382 78.0844 338.332 78.0244C336.982 77.9644 335.752 78.0844 334.642 78.3844C333.532 78.6844 332.632 79.1944 331.942 79.9144C331.282 80.6344 330.952 81.5944 330.952 82.7944C330.952 83.9344 331.402 84.7894 332.302 85.3594C333.202 85.8994 334.282 86.3194 335.542 86.6194C336.832 86.9194 338.062 87.2494 339.232 87.6094C341.872 88.4794 344.347 89.5444 346.657 90.8044C348.997 92.0644 350.872 93.6094 352.282 95.4394C353.692 97.2694 354.367 99.4594 354.307 102.009C354.307 104.919 353.437 107.469 351.697 109.659C349.957 111.819 347.707 113.469 344.947 114.609C342.217 115.749 339.292 116.199 336.172 115.959ZM383.629 115.149V52.1494H423.139V63.1294H394.609V75.9094H417.244V86.8894H394.609V104.169H423.139V115.149H383.629ZM428.675 115.149L445.145 92.5594L428.81 70.1044H442.355L451.895 83.1994L461.48 70.1044H475.025L458.69 92.5594L475.16 115.149H461.615L451.895 101.829L442.22 115.149H428.675ZM493.135 137.649H482.155V70.1494H493.135V75.8644C494.605 73.8244 496.405 72.1744 498.535 70.9144C500.695 69.6244 503.215 68.9794 506.095 68.9794C509.395 68.9794 512.47 69.5944 515.32 70.8244C518.17 72.0544 520.675 73.7644 522.835 75.9544C525.025 78.1144 526.72 80.6194 527.92 83.4694C529.15 86.3194 529.765 89.3794 529.765 92.6494C529.765 95.9194 529.15 98.9944 527.92 101.874C526.72 104.754 525.025 107.289 522.835 109.479C520.675 111.639 518.17 113.334 515.32 114.564C512.47 115.794 509.395 116.409 506.095 116.409C503.215 116.409 500.695 115.779 498.535 114.519C496.405 113.229 494.605 111.564 493.135 109.524V137.649ZM505.96 79.5544C503.68 79.5544 501.64 80.1544 499.84 81.3544C498.04 82.5244 496.63 84.0994 495.61 86.0794C494.59 88.0594 494.08 90.2494 494.08 92.6494C494.08 95.0494 494.59 97.2544 495.61 99.2644C496.63 101.244 498.04 102.834 499.84 104.034C501.64 105.204 503.68 105.789 505.96 105.789C508.27 105.789 510.385 105.204 512.305 104.034C514.225 102.864 515.755 101.289 516.895 99.3094C518.035 97.2994 518.605 95.0794 518.605 92.6494C518.605 90.2494 518.035 88.0594 516.895 86.0794C515.755 84.0994 514.225 82.5244 512.305 81.3544C510.415 80.1544 508.3 79.5544 505.96 79.5544ZM556.799 116.319C552.659 116.319 548.879 115.254 545.459 113.124C542.069 110.994 539.354 108.129 537.314 104.529C535.304 100.929 534.299 96.9544 534.299 92.6044C534.299 89.3344 534.884 86.2744 536.054 83.4244C537.224 80.5444 538.829 78.0244 540.869 75.8644C542.939 73.6744 545.339 71.9644 548.069 70.7344C550.799 69.5044 553.709 68.8894 556.799 68.8894C560.309 68.8894 563.519 69.6394 566.429 71.1394C569.369 72.6094 571.859 74.6344 573.899 77.2144C575.939 79.7944 577.424 82.7344 578.354 86.0344C579.284 89.3344 579.494 92.7844 578.984 96.3844H546.089C546.509 98.0644 547.199 99.5794 548.159 100.929C549.119 102.249 550.334 103.314 551.804 104.124C553.274 104.904 554.939 105.309 556.799 105.339C558.719 105.369 560.459 104.919 562.019 103.989C563.609 103.029 564.929 101.739 565.979 100.119L577.184 102.729C575.354 106.719 572.624 109.989 568.994 112.539C565.364 115.059 561.299 116.319 556.799 116.319ZM545.729 88.1494H567.869C567.539 86.3494 566.834 84.7294 565.754 83.2894C564.704 81.8194 563.399 80.6494 561.839 79.7794C560.279 78.9094 558.599 78.4744 556.799 78.4744C554.999 78.4744 553.334 78.9094 551.804 79.7794C550.274 80.6194 548.969 81.7744 547.889 83.2444C546.839 84.6844 546.119 86.3194 545.729 88.1494ZM586.35 115.149L586.305 70.1494H597.285L597.33 74.1544C598.86 72.5344 600.69 71.2594 602.82 70.3294C604.95 69.3694 607.245 68.8894 609.705 68.8894C611.355 68.8894 613.005 69.1294 614.655 69.6094L610.335 80.6794C609.195 80.2294 608.055 80.0044 606.915 80.0044C605.145 80.0044 603.525 80.4394 602.055 81.3094C600.615 82.1494 599.46 83.3044 598.59 84.7744C597.75 86.2144 597.33 87.8194 597.33 89.5894V115.149H586.35ZM619.528 70.1494H630.508V115.149H619.528V70.1494ZM625.108 64.3444C623.488 64.3444 622.123 63.8194 621.013 62.7694C619.903 61.6894 619.348 60.3394 619.348 58.7194C619.348 57.1294 619.903 55.7944 621.013 54.7144C622.123 53.6344 623.473 53.0944 625.063 53.0944C626.653 53.0944 627.988 53.6344 629.068 54.7144C630.178 55.7944 630.733 57.1294 630.733 58.7194C630.733 60.3394 630.193 61.6894 629.113 62.7694C628.033 63.8194 626.698 64.3444 625.108 64.3444ZM640.973 115.149V70.1494H651.953V74.1544C653.483 72.5344 655.313 71.2594 657.443 70.3294C659.573 69.3694 661.868 68.8894 664.328 68.8894C667.448 68.8894 670.313 69.6244 672.923 71.0944C675.563 72.5644 677.663 74.5294 679.223 76.9894C680.813 74.5294 682.913 72.5644 685.523 71.0944C688.133 69.6244 690.998 68.8894 694.118 68.8894C697.418 68.8894 700.403 69.6994 703.073 71.3194C705.773 72.9094 707.918 75.0544 709.508 77.7544C711.128 80.4244 711.938 83.4094 711.938 86.7094V115.149H700.958V89.6344C700.958 87.8944 700.523 86.3044 699.653 84.8644C698.813 83.3944 697.673 82.2244 696.233 81.3544C694.823 80.4544 693.233 80.0044 691.463 80.0044C689.693 80.0044 688.088 80.4394 686.648 81.3094C685.238 82.1494 684.098 83.2894 683.228 84.7294C682.358 86.1694 681.923 87.8044 681.923 89.6344V115.149H670.943V89.6344C670.943 87.8044 670.523 86.1694 669.683 84.7294C668.843 83.2894 667.703 82.1494 666.263 81.3094C664.823 80.4394 663.218 80.0044 661.448 80.0044C659.708 80.0044 658.118 80.4544 656.678 81.3544C655.238 82.2244 654.083 83.3944 653.213 84.8644C652.373 86.3044 651.953 87.8944 651.953 89.6344V115.149H640.973ZM739.875 116.319C735.735 116.319 731.955 115.254 728.535 113.124C725.145 110.994 722.43 108.129 720.39 104.529C718.38 100.929 717.375 96.9544 717.375 92.6044C717.375 89.3344 717.96 86.2744 719.13 83.4244C720.3 80.5444 721.905 78.0244 723.945 75.8644C726.015 73.6744 728.415 71.9644 731.145 70.7344C733.875 69.5044 736.785 68.8894 739.875 68.8894C743.385 68.8894 746.595 69.6394 749.505 71.1394C752.445 72.6094 754.935 74.6344 756.975 77.2144C759.015 79.7944 760.5 82.7344 761.43 86.0344C762.36 89.3344 762.57 92.7844 762.06 96.3844H729.165C729.585 98.0644 730.275 99.5794 731.235 100.929C732.195 102.249 733.41 103.314 734.88 104.124C736.35 104.904 738.015 105.309 739.875 105.339C741.795 105.369 743.535 104.919 745.095 103.989C746.685 103.029 748.005 101.739 749.055 100.119L760.26 102.729C758.43 106.719 755.7 109.989 752.07 112.539C748.44 115.059 744.375 116.319 739.875 116.319ZM728.805 88.1494H750.945C750.615 86.3494 749.91 84.7294 748.83 83.2894C747.78 81.8194 746.475 80.6494 744.915 79.7794C743.355 78.9094 741.675 78.4744 739.875 78.4744C738.075 78.4744 736.41 78.9094 734.88 79.7794C733.35 80.6194 732.045 81.7744 730.965 83.2444C729.915 84.6844 729.195 86.3194 728.805 88.1494ZM810.601 86.7094V115.149H799.621V89.5894C799.621 87.8194 799.186 86.2144 798.316 84.7744C797.446 83.3044 796.276 82.1494 794.806 81.3094C793.366 80.4394 791.761 80.0044 789.991 80.0044C788.221 80.0044 786.601 80.4394 785.131 81.3094C783.691 82.1494 782.536 83.3044 781.666 84.7744C780.826 86.2144 780.406 87.8194 780.406 89.5894V115.149H769.426L769.381 70.1494H780.361L780.406 74.1544C781.936 72.5344 783.766 71.2594 785.896 70.3294C788.026 69.3694 790.321 68.8894 792.781 68.8894C796.051 68.8894 799.036 69.6994 801.736 71.3194C804.436 72.9094 806.581 75.0544 808.171 77.7544C809.791 80.4244 810.601 83.4094 810.601 86.7094ZM843.687 81.1294H834.957V115.149H823.977V81.1294H817.317V70.1494H823.977V56.0194H834.957V70.1494H843.687V81.1294ZM864.395 115.959C862.055 115.809 859.79 115.344 857.6 114.564C855.44 113.754 853.52 112.659 851.84 111.279C850.16 109.899 848.87 108.249 847.97 106.329L857.24 102.369C857.6 102.969 858.185 103.614 858.995 104.304C859.805 104.964 860.765 105.519 861.875 105.969C863.015 106.419 864.26 106.644 865.61 106.644C866.75 106.644 867.83 106.494 868.85 106.194C869.9 105.864 870.74 105.369 871.37 104.709C872.03 104.049 872.36 103.194 872.36 102.144C872.36 101.034 871.97 100.179 871.19 99.5794C870.44 98.9494 869.48 98.4844 868.31 98.1844C867.17 97.8544 866.06 97.5544 864.98 97.2844C862.13 96.7144 859.475 95.8294 857.015 94.6294C854.585 93.4294 852.62 91.8844 851.12 89.9944C849.65 88.0744 848.915 85.7644 848.915 83.0644C848.915 80.0944 849.695 77.5294 851.255 75.3694C852.845 73.2094 854.9 71.5444 857.42 70.3744C859.97 69.2044 862.715 68.6194 865.655 68.6194C869.225 68.6194 872.495 69.3694 875.465 70.8694C878.465 72.3394 880.835 74.4244 882.575 77.1244L873.89 82.2544C873.47 81.5344 872.885 80.8744 872.135 80.2744C871.385 79.6444 870.53 79.1344 869.57 78.7444C868.61 78.3244 867.605 78.0844 866.555 78.0244C865.205 77.9644 863.975 78.0844 862.865 78.3844C861.755 78.6844 860.855 79.1944 860.165 79.9144C859.505 80.6344 859.175 81.5944 859.175 82.7944C859.175 83.9344 859.625 84.7894 860.525 85.3594C861.425 85.8994 862.505 86.3194 863.765 86.6194C865.055 86.9194 866.285 87.2494 867.455 87.6094C870.095 88.4794 872.57 89.5444 874.88 90.8044C877.22 92.0644 879.095 93.6094 880.505 95.4394C881.915 97.2694 882.59 99.4594 882.53 102.009C882.53 104.919 881.66 107.469 879.92 109.659C878.18 111.819 875.93 113.469 873.17 114.609C870.44 115.749 867.515 116.199 864.395 115.959Z" fill="#F7F7F7"/>
<path d="M30.8298 96.7286C25.6653 96.7928 20.3826 87.7321 18.2336 92.5735C17.333 94.6024 18.0604 96.0628 18.2336 98.2868C18.918 107.074 20.8385 112.741 26.799 119.062C31.6476 124.205 35.6832 126.096 42.4182 127.892C49.2761 129.721 53.6278 129.409 60.5567 127.892C68.2193 126.214 72.9976 124.604 78.6952 119.062C86.5351 111.437 99.3718 90.555 88.7721 92.5735C85.3109 93.2327 84.195 96.2155 80.7106 96.7286C75.7828 97.4543 73.5956 92.5069 68.6183 92.5735C63.8271 92.6377 61.8137 96.45 57.0298 96.7286C51.3091 97.0618 48.6465 92.317 42.9221 92.5735C37.949 92.7964 35.8072 96.6668 30.8298 96.7286Z" fill="#17B897"/>
<path d="M87.2223 10.8125L93.03 14.9433M119.164 33.5317L113.357 29.4009M113.357 29.4009L84.4414 70.0544C84.4414 70.0544 97.2571 90.8859 86.1798 110.646C75.1025 130.407 47.2734 136.76 29.4532 122.773C12.3537 109.352 10.7611 83.5231 25.1995 67.2735C38.6407 52.1462 64.1147 55.5968 64.1147 55.5968L93.03 14.9433M113.357 29.4009L93.03 14.9433" stroke="#F0FCF9" stroke-width="6" stroke-linecap="round"/>
<path d="M126.693 36.9285C126.692 36.9948 126.691 37.06 126.691 37.1241C126.681 41.0741 127.436 45.8354 132.622 46.7891C135.044 47.2346 138.172 46.4053 139.922 44.5435C142 42.332 141.611 39.4923 140.417 37.3823C138.954 34.7951 136.599 33.1469 133.753 31.6474C132.886 31.1904 131.899 30.8038 130.763 30.8447C127.145 30.9744 126.73 34.9402 126.693 36.9285Z" fill="#17B897"/>
<circle cx="66.292" cy="81.6494" r="3.5" fill="#17B897"/>
<circle cx="81.792" cy="49.1494" r="3" fill="#17B897"/>
<circle cx="40.292" cy="84.6494" r="1.5" fill="#17B897"/>
<circle cx="51.292" cy="71.6494" r="2.5" fill="#17B897"/>
<circle cx="97.292" cy="35.6494" r="2.5" fill="#17B897"/>
</svg>
